G04*
G04 #@! TF.GenerationSoftware,Altium Limited,Altium Designer,21.6.4 (81)*
G04*
G04 Layer_Color=16711935*
%FSLAX25Y25*%
%MOIN*%
G70*
G04*
G04 #@! TF.SameCoordinates,D5D1E9D7-E8D5-44D5-B98E-A1C15D945772*
G04*
G04*
G04 #@! TF.FilePolarity,Negative*
G04*
G01*
G75*
%ADD46C,0.06509*%
%ADD47R,0.07099X0.07099*%
%ADD48C,0.07099*%
%ADD49C,0.06800*%
%ADD50C,0.02800*%
D46*
X109843Y183685D02*
D03*
X90158D02*
D03*
D47*
X21000Y78000D02*
D03*
D48*
Y88000D02*
D03*
D49*
X20000Y20000D02*
D03*
X180000D02*
D03*
Y120000D02*
D03*
X20000D02*
D03*
D50*
X127000Y127000D02*
D03*
X113000Y47500D02*
D03*
X109500Y65500D02*
D03*
X107390Y20000D02*
D03*
X83000Y13000D02*
D03*
X84500Y20500D02*
D03*
X78500Y26000D02*
D03*
X126000Y44000D02*
D03*
X66213Y74713D02*
D03*
X79500Y106500D02*
D03*
X92000Y45000D02*
D03*
X71000Y65000D02*
D03*
X63000Y59000D02*
D03*
X118000Y33000D02*
D03*
X114000Y39000D02*
D03*
X119000Y90000D02*
D03*
X69000Y120000D02*
D03*
X43000Y87000D02*
D03*
X30000Y70000D02*
D03*
Y62000D02*
D03*
X98500Y75000D02*
D03*
X105500D02*
D03*
X91000Y40000D02*
D03*
X102000Y37000D02*
D03*
X77000Y74000D02*
D03*
X81000Y71000D02*
D03*
M02*
