G04*
G04 #@! TF.GenerationSoftware,Altium Limited,Altium Designer,21.6.4 (81)*
G04*
G04 Layer_Color=8421504*
%FSLAX25Y25*%
%MOIN*%
G70*
G04*
G04 #@! TF.SameCoordinates,D5D1E9D7-E8D5-44D5-B98E-A1C15D945772*
G04*
G04*
G04 #@! TF.FilePolarity,Positive*
G04*
G01*
G75*
%ADD16C,0.01968*%
G04:AMPARAMS|DCode=17|XSize=19.29mil|YSize=23.62mil|CornerRadius=1.93mil|HoleSize=0mil|Usage=FLASHONLY|Rotation=90.000|XOffset=0mil|YOffset=0mil|HoleType=Round|Shape=RoundedRectangle|*
%AMROUNDEDRECTD17*
21,1,0.01929,0.01976,0,0,90.0*
21,1,0.01543,0.02362,0,0,90.0*
1,1,0.00386,0.00988,0.00772*
1,1,0.00386,0.00988,-0.00772*
1,1,0.00386,-0.00988,-0.00772*
1,1,0.00386,-0.00988,0.00772*
%
%ADD17ROUNDEDRECTD17*%
G04:AMPARAMS|DCode=18|XSize=23.62mil|YSize=21.26mil|CornerRadius=5.63mil|HoleSize=0mil|Usage=FLASHONLY|Rotation=180.000|XOffset=0mil|YOffset=0mil|HoleType=Round|Shape=RoundedRectangle|*
%AMROUNDEDRECTD18*
21,1,0.02362,0.00999,0,0,180.0*
21,1,0.01235,0.02126,0,0,180.0*
1,1,0.01127,-0.00618,0.00500*
1,1,0.01127,0.00618,0.00500*
1,1,0.01127,0.00618,-0.00500*
1,1,0.01127,-0.00618,-0.00500*
%
%ADD18ROUNDEDRECTD18*%
%ADD19R,0.08661X0.14173*%
%ADD20R,0.08799X0.04799*%
G04:AMPARAMS|DCode=21|XSize=19.29mil|YSize=23.62mil|CornerRadius=1.93mil|HoleSize=0mil|Usage=FLASHONLY|Rotation=0.000|XOffset=0mil|YOffset=0mil|HoleType=Round|Shape=RoundedRectangle|*
%AMROUNDEDRECTD21*
21,1,0.01929,0.01976,0,0,0.0*
21,1,0.01543,0.02362,0,0,0.0*
1,1,0.00386,0.00772,-0.00988*
1,1,0.00386,-0.00772,-0.00988*
1,1,0.00386,-0.00772,0.00988*
1,1,0.00386,0.00772,0.00988*
%
%ADD21ROUNDEDRECTD21*%
G04:AMPARAMS|DCode=22|XSize=23.62mil|YSize=21.26mil|CornerRadius=5.63mil|HoleSize=0mil|Usage=FLASHONLY|Rotation=270.000|XOffset=0mil|YOffset=0mil|HoleType=Round|Shape=RoundedRectangle|*
%AMROUNDEDRECTD22*
21,1,0.02362,0.00999,0,0,270.0*
21,1,0.01235,0.02126,0,0,270.0*
1,1,0.01127,-0.00500,-0.00618*
1,1,0.01127,-0.00500,0.00618*
1,1,0.01127,0.00500,0.00618*
1,1,0.01127,0.00500,-0.00618*
%
%ADD22ROUNDEDRECTD22*%
%ADD23R,0.05906X0.07480*%
%ADD24R,0.01575X0.05315*%
%ADD25R,0.07717X0.07717*%
G04:AMPARAMS|DCode=26|XSize=33.07mil|YSize=7.87mil|CornerRadius=0.98mil|HoleSize=0mil|Usage=FLASHONLY|Rotation=0.000|XOffset=0mil|YOffset=0mil|HoleType=Round|Shape=RoundedRectangle|*
%AMROUNDEDRECTD26*
21,1,0.03307,0.00591,0,0,0.0*
21,1,0.03110,0.00787,0,0,0.0*
1,1,0.00197,0.01555,-0.00295*
1,1,0.00197,-0.01555,-0.00295*
1,1,0.00197,-0.01555,0.00295*
1,1,0.00197,0.01555,0.00295*
%
%ADD26ROUNDEDRECTD26*%
G04:AMPARAMS|DCode=27|XSize=7.87mil|YSize=33.07mil|CornerRadius=0.98mil|HoleSize=0mil|Usage=FLASHONLY|Rotation=0.000|XOffset=0mil|YOffset=0mil|HoleType=Round|Shape=RoundedRectangle|*
%AMROUNDEDRECTD27*
21,1,0.00787,0.03110,0,0,0.0*
21,1,0.00591,0.03307,0,0,0.0*
1,1,0.00197,0.00295,-0.01555*
1,1,0.00197,-0.00295,-0.01555*
1,1,0.00197,-0.00295,0.01555*
1,1,0.00197,0.00295,0.01555*
%
%ADD27ROUNDEDRECTD27*%
%ADD28R,0.22047X0.08268*%
%ADD29R,0.01968X0.01181*%
G04:AMPARAMS|DCode=30|XSize=63.39mil|YSize=22.84mil|CornerRadius=2.85mil|HoleSize=0mil|Usage=FLASHONLY|Rotation=0.000|XOffset=0mil|YOffset=0mil|HoleType=Round|Shape=RoundedRectangle|*
%AMROUNDEDRECTD30*
21,1,0.06339,0.01713,0,0,0.0*
21,1,0.05768,0.02284,0,0,0.0*
1,1,0.00571,0.02884,-0.00856*
1,1,0.00571,-0.02884,-0.00856*
1,1,0.00571,-0.02884,0.00856*
1,1,0.00571,0.02884,0.00856*
%
%ADD30ROUNDEDRECTD30*%
G36*
X85827Y192543D02*
X83858D01*
X83858Y196087D01*
X85827D01*
Y192543D01*
D02*
G37*
G36*
X90945Y190575D02*
X85827D01*
Y198055D01*
X90945D01*
Y190575D01*
D02*
G37*
G36*
X114173D02*
X109055D01*
Y198055D01*
X114173D01*
Y190575D01*
D02*
G37*
G36*
X116142Y192543D02*
X114173D01*
Y196087D01*
X116142D01*
X116142Y192543D01*
D02*
G37*
D16*
X86811Y192543D02*
G03*
X86811Y192543I-984J0D01*
G01*
Y196087D02*
G03*
X86811Y196087I-984J0D01*
G01*
X115157Y192543D02*
G03*
X115157Y192543I-984J0D01*
G01*
Y196087D02*
G03*
X115157Y196087I-984J0D01*
G01*
D17*
X101000Y91791D02*
D03*
X106000D02*
D03*
X101000Y88209D02*
D03*
X106000D02*
D03*
X21000Y105791D02*
D03*
Y102209D02*
D03*
D18*
X125000Y117307D02*
D03*
Y120693D02*
D03*
X128000Y23693D02*
D03*
Y20307D02*
D03*
X116000Y96614D02*
D03*
Y100000D02*
D03*
X108500Y41614D02*
D03*
Y45000D02*
D03*
X104000Y41614D02*
D03*
Y45000D02*
D03*
X69000Y116386D02*
D03*
Y113000D02*
D03*
D19*
X159201Y115000D02*
D03*
D20*
X134799Y105902D02*
D03*
Y115000D02*
D03*
Y124098D02*
D03*
D21*
X52209Y24000D02*
D03*
X55791D02*
D03*
X52209Y16000D02*
D03*
X55791D02*
D03*
X48583Y60000D02*
D03*
X45000D02*
D03*
X51417Y113000D02*
D03*
X55000D02*
D03*
D22*
X123307Y95000D02*
D03*
X126693D02*
D03*
X115693Y85000D02*
D03*
X112307D02*
D03*
X124500Y67000D02*
D03*
X121114D02*
D03*
X124500Y71500D02*
D03*
X121114D02*
D03*
X124386Y76000D02*
D03*
X121000D02*
D03*
X124500Y62500D02*
D03*
X121114D02*
D03*
X124500Y53500D02*
D03*
X121114D02*
D03*
X124500Y58000D02*
D03*
X121114D02*
D03*
X124500Y49000D02*
D03*
X121114D02*
D03*
X24193Y60000D02*
D03*
X20807D02*
D03*
X77000Y61000D02*
D03*
X80386D02*
D03*
X56693Y60000D02*
D03*
X53307D02*
D03*
D23*
X96063Y194315D02*
D03*
X103937D02*
D03*
D24*
X94882Y183685D02*
D03*
X97441D02*
D03*
X100000D02*
D03*
X102559D02*
D03*
X105118D02*
D03*
D25*
X100000Y65000D02*
D03*
D26*
X113524Y75236D02*
D03*
Y73661D02*
D03*
Y72087D02*
D03*
Y70512D02*
D03*
Y68937D02*
D03*
Y67362D02*
D03*
Y65787D02*
D03*
Y64213D02*
D03*
Y62638D02*
D03*
Y61063D02*
D03*
Y59488D02*
D03*
Y57913D02*
D03*
Y56339D02*
D03*
Y54764D02*
D03*
X86476D02*
D03*
Y56339D02*
D03*
Y57913D02*
D03*
Y59488D02*
D03*
Y61063D02*
D03*
Y62638D02*
D03*
Y64213D02*
D03*
Y65787D02*
D03*
Y67362D02*
D03*
Y68937D02*
D03*
Y70512D02*
D03*
Y72087D02*
D03*
Y73661D02*
D03*
Y75236D02*
D03*
D27*
X89764Y78524D02*
D03*
X91339D02*
D03*
X92913D02*
D03*
X94488D02*
D03*
X96063D02*
D03*
X97638D02*
D03*
X99213D02*
D03*
X100787D02*
D03*
X102362D02*
D03*
X103937D02*
D03*
X105512D02*
D03*
X107087D02*
D03*
X108661D02*
D03*
X110236D02*
D03*
Y51476D02*
D03*
X108661D02*
D03*
X107087D02*
D03*
X105512D02*
D03*
X103937D02*
D03*
X102362D02*
D03*
X100787D02*
D03*
X99213D02*
D03*
X97638D02*
D03*
X96063D02*
D03*
X94488D02*
D03*
X92913D02*
D03*
X91339D02*
D03*
X89764D02*
D03*
D28*
X20799Y47000D02*
D03*
X58201D02*
D03*
D29*
X100000Y23150D02*
D03*
Y20000D02*
D03*
X94488D02*
D03*
Y23150D02*
D03*
D30*
X40807Y106500D02*
D03*
Y101500D02*
D03*
Y96500D02*
D03*
Y91500D02*
D03*
X69193D02*
D03*
Y96500D02*
D03*
Y101500D02*
D03*
Y106500D02*
D03*
M02*
