M48
;Layer_Color=9474304
;FILE_FORMAT=2:5
INCH,LZ
;TYPE=PLATED
T1F00S00C0.01000
T3F00S00C0.03346
T4F00S00C0.04331
T5F00S00C0.12992
%
T01
X0083Y0013
X00845Y00205
X00785Y0026
X0091Y004
X0092Y0045
X0102Y0037
X0114Y0039
X0113Y00475
X0126Y0044
X0118Y0033
X010739Y002
X01095Y00655
X01055Y0075
X00985
X0081Y0071
X0077Y0074
X0066213Y0074713
X0071Y0065
X0063Y0059
X00795Y01065
X0069Y012
X0127Y0127
X0119Y009
X0043Y0087
X003Y007
Y0062
T03
X0090158Y0183685
X0109843
T04
X0021Y0078
Y0088
T05
X018Y002
Y012
X002
Y002
M30
